# Rhino

mtllib box.mtl
usemtl diffuse_0_0_0_255
v 1.8182936906814575 0 6.9081063270568848
v 1.8182936906814575 8.8617134094238281 6.9081063270568848
v 16.923114776611328 0 6.9081063270568848
v 16.923114776611328 8.8617134094238281 6.9081063270568848
v 16.923114776611328 0 6.9081063270568848
v 16.923114776611328 8.8617134094238281 6.9081063270568848
v 16.923114776611328 0 -9.2653131484985352
v 16.923114776611328 8.8617134094238281 -9.2653131484985352
v 16.923114776611328 0 -9.2653131484985352
v 16.923114776611328 8.8617134094238281 -9.2653131484985352
v 1.8182936906814575 0 -9.2653131484985352
v 1.8182936906814575 8.8617134094238281 -9.2653131484985352
v 1.8182936906814575 0 -9.2653131484985352
v 1.8182936906814575 8.8617134094238281 -9.2653131484985352
v 1.8182936906814575 0 6.9081063270568848
v 1.8182936906814575 8.8617134094238281 6.9081063270568848
v 1.8182936906814575 0 6.9081063270568848
v 16.923114776611328 0 6.9081063270568848
v 16.923114776611328 0 -9.2653131484985352
v 1.8182936906814575 0 -9.2653131484985352
v 1.8182936906814575 8.8617134094238281 6.9081063270568848
v 16.923114776611328 8.8617134094238281 6.9081063270568848
v 16.923114776611328 8.8617134094238281 -9.2653131484985352
v 1.8182936906814575 8.8617134094238281 -9.2653131484985352
vt 0 0
vt 0 0.61340385675430298
vt 0.24145892262458801 0
vt 0.24145892262458801 0.61340385675430298
vt 0.24145892262458801 0
vt 0.24145892262458801 0.61340385675430298
vt 0.5 0
vt 0.5 0.61340385675430298
vt 0.5 0
vt 0.5 0.61340385675430298
vt 0.7414589524269104 0
vt 0.7414589524269104 0.61340385675430298
vt 0.7414589524269104 0
vt 0.7414589524269104 0.61340385675430298
vt 1 0
vt 1 0.61340385675430298
vt 0.25854107737541199 1
vt 0.25854107737541199 0.61340445280075073
vt 0 0.61340445280075073
vt 0 1
vt 1 0.61340445280075073
vt 1 1
vt 0.7414589524269104 1
vt 0.7414589524269104 0.61340445280075073
vn 0 0 1
vn 0 0 1
vn 0 0 1
vn 0 0 1
vn 1 0 0
vn 1 0 0
vn 1 0 0
vn 1 0 0
vn 0 0 -1
vn 0 0 -1
vn 0 0 -1
vn 0 0 -1
vn -1 0 0
vn -1 0 0
vn -1 0 0
vn -1 0 0
vn 0 -1 0
vn 0 -1 0
vn 0 -1 0
vn 0 -1 0
vn 0 1 0
vn 0 1 0
vn 0 1 0
vn 0 1 0
f 1/1/1 3/3/3 4/4/4 2/2/2
f 5/5/5 7/7/7 8/8/8 6/6/6
f 9/9/9 11/11/11 12/12/12 10/10/10
f 13/13/13 15/15/15 16/16/16 14/14/14
f 18/18/18 17/17/17 20/20/20
f 20/20/20 19/19/19 18/18/18
f 22/22/22 24/24/24 21/21/21
f 24/24/24 22/22/22 23/23/23
